<svg width="484" height="96" viewBox="0 0 484 96" fill="none" xmlns="http://www.w3.org/2000/svg">
<path fill-rule="evenodd" clip-rule="evenodd" d="M28.513 49.7669L19.8834 65.3665L39.4351 51.4547L30.9279 45.4014L22.7841 39.6068L9.93103 30.4614V52.5331L0 70.6288V20.834L7.8443 16.7881L27.6223 30.8609L27.6276 30.8513L35.7714 36.6459L35.766 36.6555L48 45.3605L56.1724 39.5455L61.0129 48.2897L56.5649 51.4547L76.1166 65.3665L65.0721 45.4014L60.234 36.6555L56.1635 29.2974L48 14.5403L38.1905 32.2729L30.0467 26.4783L43.655 1.87866H52.345L63.8506 22.6773L68.3777 30.8609L73.2159 39.6068L86.069 62.8385L96 80.8178V82.0754L88.1557 86.1212L48 57.5489L7.8443 86.1212L0 82.0754V80.9496L9.93103 62.8412L10.8117 61.2493L20.3719 43.9673L28.513 49.7669ZM96 70.5479V20.834L88.1557 16.7881L72.437 27.9726L77.2806 36.7147L86.069 30.4614V52.5686L96 70.5479Z" fill="#009951"/>
<path d="M171.859 15.2852H186.855V76H174.695V34.2773L157.895 65.0859H151.02L134.305 34.2773V76H122.145V15.2852H137.312L154.543 46.8672L171.859 15.2852ZM232.445 31.1406H243.875V76H232.445V70.6289C228.521 74.9258 223.651 77.0742 217.836 77.0742C211.591 77.0742 206.378 74.8255 202.195 70.3281C198.013 65.8307 195.922 60.2448 195.922 53.5703C195.922 46.8958 198.013 41.3099 202.195 36.8125C206.378 32.3151 211.591 30.0664 217.836 30.0664C223.68 30.0664 228.549 32.2005 232.445 36.4688V31.1406ZM220.027 65.9883C223.579 65.9883 226.53 64.7995 228.879 62.4219C231.257 60.0443 232.445 57.0938 232.445 53.5703C232.445 50.0469 231.257 47.0964 228.879 44.7188C226.53 42.3411 223.579 41.1523 220.027 41.1523C216.504 41.1523 213.568 42.3411 211.219 44.7188C208.87 47.0964 207.695 50.0469 207.695 53.5703C207.695 57.0938 208.87 60.0443 211.219 62.4219C213.568 64.7995 216.504 65.9883 220.027 65.9883ZM280.441 30.0664C285.741 30.0664 289.98 31.6562 293.16 34.8359C296.368 37.987 297.973 42.1979 297.973 47.4688V76H286.5V51.1641C286.5 48.1276 285.598 45.707 283.793 43.9023C282.017 42.069 279.639 41.1523 276.66 41.1523C273.538 41.1523 271.003 42.0977 269.055 43.9883C267.135 45.8503 266.176 48.3138 266.176 51.3789V76H254.746V31.1406H266.176V36.125C269.785 32.0859 274.54 30.0664 280.441 30.0664ZM323.582 77.0742C316.306 77.0742 310.004 74.7826 304.676 70.1992L310.219 62.6367C314.029 65.9596 318.397 67.6211 323.324 67.6211C325.673 67.6211 327.578 67.2487 329.039 66.5039C330.529 65.7591 331.273 64.7279 331.273 63.4102C331.273 62.694 331.059 62.0638 330.629 61.5195C330.228 60.9753 329.569 60.5026 328.652 60.1016C327.736 59.7005 326.848 59.3711 325.988 59.1133C325.158 58.8555 323.983 58.5547 322.465 58.2109C321.434 57.9818 320.617 57.7956 320.016 57.6523C319.414 57.5091 318.583 57.2943 317.523 57.0078C316.492 56.6927 315.647 56.4062 314.988 56.1484C314.358 55.8906 313.599 55.5469 312.711 55.1172C311.823 54.6589 311.092 54.2005 310.52 53.7422C309.975 53.2839 309.388 52.7253 308.758 52.0664C308.156 51.4076 307.669 50.7057 307.297 49.9609C306.953 49.2161 306.667 48.3568 306.438 47.3828C306.208 46.4089 306.094 45.3633 306.094 44.2461C306.094 41.181 306.939 38.5599 308.629 36.3828C310.319 34.2057 312.51 32.6159 315.203 31.6133C317.924 30.582 320.99 30.0664 324.398 30.0664C331.016 30.0664 336.816 32.0286 341.801 35.9531L336.258 43.6016C332.591 40.8516 328.724 39.4766 324.656 39.4766C322.594 39.4766 320.904 39.806 319.586 40.4648C318.268 41.1237 317.609 42.0833 317.609 43.3438C317.609 44.0599 317.81 44.6901 318.211 45.2344C318.612 45.75 319.271 46.2083 320.188 46.6094C321.104 46.9818 321.992 47.2969 322.852 47.5547C323.711 47.7839 324.9 48.056 326.418 48.3711C327.736 48.6576 328.796 48.901 329.598 49.1016C330.4 49.3021 331.445 49.6172 332.734 50.0469C334.023 50.4766 335.069 50.9062 335.871 51.3359C336.702 51.7656 337.59 52.3529 338.535 53.0977C339.509 53.8138 340.268 54.5872 340.812 55.418C341.357 56.2487 341.815 57.2656 342.188 58.4688C342.589 59.6719 342.789 60.9753 342.789 62.3789C342.789 65.444 341.93 68.1081 340.211 70.3711C338.492 72.6341 336.201 74.3242 333.336 75.4414C330.471 76.5299 327.22 77.0742 323.582 77.0742ZM389.066 70.3281C384.454 74.8255 378.725 77.0742 371.879 77.0742C365.033 77.0742 359.289 74.8255 354.648 70.3281C350.036 65.8307 347.73 60.2448 347.73 53.5703C347.73 46.8958 350.036 41.3099 354.648 36.8125C359.289 32.3151 365.033 30.0664 371.879 30.0664C378.725 30.0664 384.454 32.3151 389.066 36.8125C393.678 41.3099 395.984 46.8958 395.984 53.5703C395.984 60.2448 393.678 65.8307 389.066 70.3281ZM371.879 65.9883C375.431 65.9883 378.367 64.8138 380.688 62.4648C383.008 60.0872 384.168 57.1224 384.168 53.5703C384.168 50.0182 383.008 47.0677 380.688 44.7188C378.367 42.3411 375.431 41.1523 371.879 41.1523C368.355 41.1523 365.419 42.3411 363.07 44.7188C360.721 47.0964 359.547 50.0469 359.547 53.5703C359.547 57.0938 360.721 60.0443 363.07 62.4219C365.419 64.7995 368.355 65.9883 371.879 65.9883ZM428.555 30.4102H430.488V42.2266H428.555C424.487 42.2266 421.307 43.3438 419.016 45.5781C416.753 47.8125 415.621 50.849 415.621 54.6875V76H404.191V31.1406H415.621V36.9414C419.059 32.5872 423.37 30.4102 428.555 30.4102ZM470.234 31.1406H482.996L460.824 83.8203C459.592 86.8854 457.745 89.306 455.281 91.082C452.818 92.8867 450.111 93.7891 447.16 93.7891C445.126 93.7891 443.021 93.3737 440.844 92.543C438.695 91.7122 436.876 90.6237 435.387 89.2773L439.77 80.2969C441.288 81.901 443.107 82.7031 445.227 82.7031C447.547 82.7031 449.251 81.5286 450.34 79.1797L452.188 75.3125L433.883 31.1406H446.902L458.633 61.6484L470.234 31.1406Z" fill="#F2F2F7"/>
</svg>
