<svg width="16" height="16" viewBox="0 0 16 16" fill="none" xmlns="http://www.w3.org/2000/svg">
<path d="M2.79273 2.79273C2.98032 2.60514 3.23474 2.49976 3.50003 2.49976C3.76532 2.49976 4.01975 2.60514 4.20734 2.79273L8.00003 6.586L11.7927 2.79276C11.9803 2.60517 12.2347 2.49976 12.5 2.49976C12.7653 2.49976 13.0197 2.60514 13.2073 2.79273C13.3949 2.98032 13.5003 3.23474 13.5003 3.50003C13.5003 3.76532 13.3949 4.01975 13.2073 4.20734L9.41407 8.00003L13.2073 11.7927C13.3002 11.8856 13.3739 11.9959 13.4242 12.1172C13.4744 12.2386 13.5003 12.3687 13.5003 12.5C13.5003 12.6314 13.4744 12.7615 13.4242 12.8828C13.3739 13.0042 13.3002 13.1145 13.2073 13.2073C13.1145 13.3002 13.0042 13.3739 12.8828 13.4242C12.7615 13.4744 12.6314 13.5003 12.5 13.5003C12.3687 13.5003 12.2386 13.4744 12.1172 13.4242C11.9959 13.3739 11.8856 13.3002 11.7927 13.2073L8.00003 9.41407L4.20736 13.2073C4.01978 13.3949 3.76532 13.5003 3.50003 13.5003C3.23474 13.5003 2.98032 13.3949 2.79273 13.2073C2.60514 13.0197 2.49976 12.7653 2.49976 12.5C2.49976 12.2347 2.60514 11.9803 2.79273 11.7927L6.586 8.00003L2.79276 4.20736C2.60517 4.01978 2.49976 3.76532 2.49976 3.50003C2.49976 3.23474 2.60514 2.98032 2.79273 2.79273Z" fill="#F2F2F7"/>
</svg>
